<svg width="25" height="20" viewBox="0 0 25 20" xmlns="http://www.w3.org/2000/svg"><title>6C767BC0-AF3D-4C9D-8644-3D3F231E1F81</title><path d="M12.5 7.5a3.75 3.75 0 1 0 .001 7.501A3.75 3.75 0 0 0 12.5 7.5zm10-3.75h-3c-.413 0-.858-.32-.986-.712L17.738.71C17.605.32 17.163 0 16.75 0h-8.5c-.412 0-.857.32-.986.71l-.778 2.328c-.13.392-.574.712-.986.712h-3A2.507 2.507 0 0 0 0 6.25V17.5C0 18.875 1.125 20 2.5 20h20c1.375 0 2.5-1.125 2.5-2.5V6.25c0-1.375-1.125-2.5-2.5-2.5zm-10 13.75a6.25 6.25 0 0 1-6.25-6.25 6.25 6.25 0 1 1 6.25 6.25zm9.375-9.75a.875.875 0 1 1 0-1.75.875.875 0 0 1 0 1.75z" fill-rule="nonzero" fill="#FFF"/></svg>