<svg xmlns="http://www.w3.org/2000/svg" xmlns:xlink="http://www.w3.org/1999/xlink" width="132" height="50" viewBox="0 0 132 50"><defs><rect id="b" width="124" height="42" rx="8"/><filter id="a" width="109.7%" height="128.6%" x="-4.8%" y="-14.3%" filterUnits="objectBoundingBox"><feOffset in="SourceAlpha" result="shadowOffsetOuter1"/><feGaussianBlur in="shadowOffsetOuter1" result="shadowBlurOuter1" stdDeviation="2"/><feColorMatrix in="shadowBlurOuter1" values="0 0 0 0 0.33245642 0 0 0 0 0.33245642 0 0 0 0 0.33245642 0 0 0 0.5 0"/></filter></defs><g fill="none" fill-rule="evenodd"><g transform="translate(4 4)"><use fill="#000" filter="url(#a)" xlink:href="#b"/><use fill="#FFF" xlink:href="#b"/></g><path fill="#7F98F6" fill-rule="nonzero" d="M30 23a3 3 0 1 0 0 6 3 3 0 0 0 0-6zm8-3h-2.4a.888.888 0 0 1-.789-.57l-.621-1.861A.89.89 0 0 0 33.4 17h-6.8c-.33 0-.686.256-.789.568l-.622 1.862a.889.889 0 0 1-.789.57H22c-1.1 0-2 .9-2 2v9c0 1.1.9 2 2 2h16c1.1 0 2-.9 2-2v-9c0-1.1-.9-2-2-2zm-8 11a5 5 0 0 1-5-5 5 5 0 1 1 10 0 5 5 0 0 1-5 5zm7.5-7.8a.7.7 0 1 1 0-1.4.7.7 0 0 1 0 1.4z"/></g></svg>