<svg width="28" height="28" viewBox="0 0 28 28" xmlns="http://www.w3.org/2000/svg"><title>55696415-2B6E-4703-AE80-36DA85A05E70</title><path d="M14 0C6.268 0 0 6.268 0 14c0 7.731 6.268 14 14 14 7.731 0 14-6.269 14-14 0-7.732-6.27-14-14-14zm.966 15.711c0 .037-.006.074-.01.11-.005.028-.006.057-.012.084-.007.028-.017.056-.027.084a.62.62 0 0 1-.035.1l-.006.018a.96.96 0 0 1-.072.127l-.006.007a.964.964 0 0 1-.102.124l-.031.03a.927.927 0 0 1-.102.084c-.011.008-.022.017-.034.024a.969.969 0 0 1-.145.08l-.033.011a.973.973 0 0 1-.352.069c-.012 0-.024-.004-.036-.005a.974.974 0 0 1-.165-.018c-.017-.003-.033-.01-.05-.015a.983.983 0 0 1-.145-.05l-.016-.005-5.368-2.532a.968.968 0 0 1 .826-1.752l3.986 1.88V5.81a.968.968 0 0 1 1.937 0v9.884l-.002.017z" fill="#7F98F6" fill-rule="evenodd"/></svg>