<svg width="48" height="48" viewBox="0 0 48 48" xmlns="http://www.w3.org/2000/svg"><title>C71BB7A4-C9A1-4C83-9ED6-F94DB8FE688D</title><path d="M24 0C10.746 0 0 10.746 0 24s10.746 24 24 24 24-10.746 24-24S37.254 0 24 0zm8.375 36.158c-.72.326-1.471.602-2.242.81-2.923.81-5.847.84-8.76-.109-3.516-1.136-5.847-3.536-7.24-6.894-.266-.651-.444-1.333-.652-2.014h-2.755a.828.828 0 0 1-.83-.83v-1.857c0-.464.376-.83.83-.83h2.281v-1.51h-2.281a.828.828 0 0 1-.83-.83v-1.857c0-.464.376-.83.83-.83h2.904l.098-.286c.78-2.479 2.124-4.602 4.188-6.202 1.64-1.275 3.536-1.976 5.57-2.302 2.894-.464 5.7-.069 8.415.998a3.5 3.5 0 0 1 .514.247c.652.385.82.869.533 1.57-.306.731-.612 1.472-.948 2.193-.286.622-.681.82-1.353.671-.919-.207-1.817-.494-2.736-.681-1.936-.395-3.862-.415-5.748.326-1.62.642-2.607 1.876-3.279 3.417-.01.02-.01.04-.01.06h5.64c.464 0 .83.375.83.829v1.857c0 .464-.376.83-.83.83h-6.44c-.01.493 0 .987 0 1.51h6.45c.464 0 .83.376.83.83v1.857c0 .464-.376.83-.83.83h-5.887c.711 2.034 1.867 3.604 4.04 4.286 1.738.543 3.486.513 5.244.148.909-.188 1.798-.464 2.706-.672.711-.158 1.096.03 1.393.682.336.73.652 1.472.948 2.222.276.672.099 1.215-.593 1.531z" fill="#7F98F6" fill-rule="evenodd"/></svg>