<svg width="47" height="49" viewBox="0 0 47 49" xmlns="http://www.w3.org/2000/svg"><title>0583EA07-F4A3-490B-BB9F-AB87F7EF214A</title><g fill="#7F98F6" fill-rule="evenodd"><path d="M14.638 30.86c-1.93-2.026-1.87-5.262.135-7.214a5.009 5.009 0 0 1 7.137.137l.045.047-1.265-10.849c-.326-2.794 1.658-5.335 4.421-5.664.16-.02.323-.029.485-.032l.202-2.401c.118-1.402-.91-2.635-2.297-2.755-1.386-.12-2.607.92-2.725 2.323l-.705 8.38c-.044.52-.813.488-.813-.034V2.548C19.258 1.14 18.13 0 16.738 0c-1.392 0-2.52 1.14-2.52 2.548v10.088c0 .425-.623.463-.672.04l-.955-8.19c-.162-1.397-1.415-2.397-2.797-2.232-1.383.164-2.371 1.43-2.208 2.828l1.967 16.884c.057.484-.53.764-.864.413l-4.214-4.424a2.5 2.5 0 0 0-3.563-.068 2.567 2.567 0 0 0-.068 3.602c11.228 11.79 11.544 11.787 11.83 11.97a1.576 1.576 0 0 0-1.272 1.553v4.127c0 .873.7 1.581 1.564 1.581h11.061l-9.389-9.86z"/><path d="M44.197 31.518l2.738-13.56c.253-1.255-.547-2.479-1.788-2.735a2.295 2.295 0 0 0-2.705 1.808l-1.092 5.406c-.098.486-.807.374-.766-.112l.829-9.841c.118-1.402-.911-2.635-2.298-2.755-1.386-.12-2.606.92-2.725 2.323l-.705 8.38c-.045.525-.813.488-.813-.034v-10.25c0-1.407-1.128-2.548-2.52-2.548-1.391 0-2.52 1.14-2.52 2.548v10.088c0 .426-.622.466-.672.04l-.954-8.19c-.163-1.397-1.415-2.397-2.798-2.232-1.382.165-2.37 1.431-2.208 2.829l1.968 16.883c.057.487-.533.762-.865.413l-4.213-4.424a2.5 2.5 0 0 0-3.564-.068 2.567 2.567 0 0 0-.067 3.602s11.543 11.787 11.83 11.97a1.576 1.576 0 0 0-1.273 1.553v4.127c0 .873.7 1.581 1.564 1.581h14.856c.864 0 1.564-.708 1.564-1.58v-4.128c0-.777-.555-1.421-1.285-1.554.302-.42.482-.936.482-1.495v-8.045zm-3.151 14.859a1.75 1.75 0 0 1-1.74-1.76c0-.972.778-1.76 1.74-1.76.961 0 1.74.788 1.74 1.76s-.779 1.76-1.74 1.76z"/></g></svg>