<svg width="20" height="21" viewBox="0 0 20 21" xmlns="http://www.w3.org/2000/svg"><title>E1B29D98-979E-484D-8C86-B76B60CCD9B9</title><g fill="#0A184A" fill-rule="evenodd"><path d="M5.897 10.196a.687.687 0 0 0-.991 0 .737.737 0 0 0 0 1.02l3.23 3.326c.138.141.308.211.496.211h.035a.773.773 0 0 0 .512-.264l8.086-9.977a.758.758 0 0 0-.086-1.02.707.707 0 0 0-.991.087l-7.607 9.38-2.684-2.763z"/><path d="M15.23 2.137C11.3-.397 6.257.2 2.975 3.579c-3.863 3.977-3.863 10.47 0 14.447 1.932 1.989 4.479 2.992 7.009 2.992 2.53 0 5.077-1.003 7.008-2.992 3.3-3.396 3.864-8.604 1.385-12.652a.683.683 0 0 0-.957-.228.727.727 0 0 0-.222.985A8.908 8.908 0 0 1 16 17.006a8.37 8.37 0 0 1-12.051 0C.632 13.592.632 8.014 3.949 4.6c2.837-2.903 7.162-3.414 10.547-1.25a.683.683 0 0 0 .957-.228.727.727 0 0 0-.222-.985z"/></g></svg>