<?xml version="1.0" encoding="UTF-8"?>
<svg width="12px" height="20px" viewBox="0 0 12 20" version="1.1" xmlns="http://www.w3.org/2000/svg" xmlns:xlink="http://www.w3.org/1999/xlink">
    <!-- Generator: sketchtool 42 (36781) - http://www.bohemiancoding.com/sketch -->
    <title>6976F330-6125-470A-B007-AFD50DD703D9</title>
    <desc>Created with sketchtool.</desc>
    <defs></defs>
    <g id="Page-1" stroke="none" stroke-width="1" fill="none" fill-rule="evenodd">
        <g id="Show-page" transform="translate(-664.000000, -833.000000)" fill="#0A184A">
            <g id="Map" transform="translate(664.000000, 833.000000)">
                <g id="Location">
                    <g id="map-marker-copy">
                        <path d="M6,20 C5.847,20 5.702,19.93 5.607,19.809 C5.55,19.736 4.189,17.995 2.81,15.424 C1.998,13.911 1.35,12.425 0.885,11.008 C0.298,9.221 0.001,7.536 0.001,6 C0.001,2.692 2.693,0 6.001,0 C9.309,0 12.001,2.692 12.001,6 C12.001,7.536 11.703,9.22 11.117,11.008 C10.652,12.425 10.004,13.911 9.192,15.424 C7.812,17.995 6.452,19.736 6.395,19.809 C6.3,19.93 6.155,20 6.002,20 L6,20 Z M6,1 C3.243,1 1,3.243 1,6 C1,9.254 2.463,12.664 3.691,14.951 C4.593,16.632 5.5,17.965 6,18.661 C6.502,17.962 7.415,16.621 8.318,14.935 C9.541,12.652 11,9.248 11,6 C11,3.243 8.757,1 6,1 L6,1 Z" id="Shape"></path>
                        <path d="M6,9 C4.346,9 3,7.654 3,6 C3,4.346 4.346,3 6,3 C7.654,3 9,4.346 9,6 C9,7.654 7.654,9 6,9 L6,9 Z M6,4 C4.897,4 4,4.897 4,6 C4,7.103 4.897,8 6,8 C7.103,8 8,7.103 8,6 C8,4.897 7.103,4 6,4 L6,4 Z" id="Shape"></path>
                    </g>
                </g>
            </g>
        </g>
    </g>
</svg>