<svg width="12" height="20" viewBox="0 0 12 20" xmlns="http://www.w3.org/2000/svg"><title>6976F330-6125-470A-B007-AFD50DD703D9</title><g fill="#0A184A" fill-rule="evenodd"><path d="M6 20a.5.5 0 0 1-.393-.191c-.057-.073-1.418-1.814-2.797-4.385-.812-1.513-1.46-2.999-1.925-4.416C.298 9.221.001 7.536.001 6c0-3.308 2.692-6 6-6s6 2.692 6 6c0 1.536-.298 3.22-.884 5.008-.465 1.417-1.113 2.903-1.925 4.416-1.38 2.571-2.74 4.312-2.797 4.385a.5.5 0 0 1-.393.191H6zM6 1C3.243 1 1 3.243 1 6c0 3.254 1.463 6.664 2.691 8.951A34.411 34.411 0 0 0 6 18.661a34.38 34.38 0 0 0 2.318-3.726C9.541 12.652 11 9.248 11 6c0-2.757-2.243-5-5-5z"/><path d="M6 9C4.346 9 3 7.654 3 6s1.346-3 3-3 3 1.346 3 3-1.346 3-3 3zm0-5c-1.103 0-2 .897-2 2s.897 2 2 2 2-.897 2-2-.897-2-2-2z"/></g></svg>