<?xml version="1.0" encoding="UTF-8"?>
<svg width="17px" height="21px" viewBox="0 0 17 21" version="1.1" xmlns="http://www.w3.org/2000/svg" xmlns:xlink="http://www.w3.org/1999/xlink">
    <!-- Generator: Sketch 43.1 (39012) - http://www.bohemiancoding.com/sketch -->
    <title>Shape</title>
    <desc>Created with Sketch.</desc>
    <defs></defs>
    <g id="Page-1" stroke="none" stroke-width="1" fill="none" fill-rule="evenodd" opacity="0.502774004">
        <g id="Login" transform="translate(-521.000000, -475.000000)" fill="#0A184A">
            <g id="Password" transform="translate(507.000000, 462.000000)">
                <path d="M25.11,20.032 L25.11,18.016 C25.11,16.328 23.704,14.922 22.016,14.922 C20.328,14.922 18.922,16.328 18.922,18.016 L18.922,20.032 L25.11,20.032 L25.11,20.032 Z M22.016,29.032 C23.094,29.032 24.032,28.094 24.032,27.016 C24.032,25.938 23.094,25 22.016,25 C20.938,25 20,25.938 20,27.016 C20,28.094 20.938,29.032 22.016,29.032 Z M28.016,20.032 C29.094,20.032 30.032,20.923 30.032,22.001 L30.032,32.032 C30.032,33.11 29.094,34.001 28.016,34.001 L16.016,34.001 C14.938,34.001 14,33.11 14,32.032 L14,22.001 C14,20.923 14.938,20.032 16.016,20.032 L17,20.032 L17,18.016 C17,15.25 19.25,13 22.016,13 C24.782,13 27.032,15.25 27.032,18.016 L27.032,20.032 L28.016,20.032 L28.016,20.032 Z" id="Shape"></path>
            </g>
        </g>
    </g>
</svg>