<svg width="17" height="21" viewBox="0 0 17 21" xmlns="http://www.w3.org/2000/svg"><title>Shape</title><path d="M11.11 7.032V5.016c0-1.688-1.406-3.094-3.094-3.094S4.922 3.328 4.922 5.016v2.016h6.188zm-3.094 9c1.078 0 2.016-.938 2.016-2.016S9.094 12 8.016 12 6 12.938 6 14.016s.938 2.016 2.016 2.016zm6-9c1.078 0 2.016.891 2.016 1.969v10.031c0 1.078-.938 1.969-2.016 1.969h-12C.938 21.001 0 20.11 0 19.032V9.001c0-1.078.938-1.969 2.016-1.969H3V5.016A5.021 5.021 0 0 1 8.016 0a5.021 5.021 0 0 1 5.016 5.016v2.016h.984z" fill="#0A184A" fill-rule="evenodd" opacity=".503"/></svg>