<svg width="21" height="22" viewBox="0 0 21 22" xmlns="http://www.w3.org/2000/svg"><title>1436E70B-F5E0-47BB-81F2-944AFAA523CF</title><path d="M19.868 20.162l-5.943-6.484A7.448 7.448 0 0 0 16 8.5c0-2.003-.78-3.887-2.197-5.303A7.454 7.454 0 0 0 8.5 1c-2.003 0-3.887.78-5.303 2.197A7.454 7.454 0 0 0 1 8.5c0 2.003.78 3.887 2.197 5.303A7.454 7.454 0 0 0 8.5 16a7.441 7.441 0 0 0 4.688-1.645l5.943 6.483a.497.497 0 0 0 .707.031.5.5 0 0 0 .031-.706l-.001-.001zM1.999 8.5c0-3.584 2.916-6.5 6.5-6.5s6.5 2.916 6.5 6.5-2.916 6.5-6.5 6.5a6.508 6.508 0 0 1-6.5-6.5z" stroke="#FFF" fill="#FFF" fill-rule="evenodd"/></svg>