<svg xmlns="http://www.w3.org/2000/svg" width="17" height="18" viewBox="0 0 17 18">
    <path fill="#4A4A4A" fill-rule="evenodd" stroke="#4A4A4A" d="M15.896 16.128l-4.692-5.12a5.88 5.88 0 0 0 1.638-4.087 5.88 5.88 0 0 0-1.734-4.187A5.885 5.885 0 0 0 6.92 1a5.88 5.88 0 0 0-4.187 1.734A5.885 5.885 0 0 0 1 6.921a5.88 5.88 0 0 0 1.734 4.187 5.885 5.885 0 0 0 4.187 1.734 5.875 5.875 0 0 0 3.701-1.299l4.692 5.118a.392.392 0 0 0 .558.025.394.394 0 0 0 .024-.557v-.001zM1.789 6.92A5.137 5.137 0 0 1 6.92 1.789a5.137 5.137 0 0 1 5.132 5.132 5.137 5.137 0 0 1-5.132 5.132A5.137 5.137 0 0 1 1.79 6.92z"/>
</svg>
