<?xml version="1.0" encoding="UTF-8"?>
<svg width="21px" height="22px" viewBox="0 0 21 22" version="1.1" xmlns="http://www.w3.org/2000/svg" xmlns:xlink="http://www.w3.org/1999/xlink">
    <!-- Generator: sketchtool 42 (36781) - http://www.bohemiancoding.com/sketch -->
    <title>1436E70B-F5E0-47BB-81F2-944AFAA523CF</title>
    <desc>Created with sketchtool.</desc>
    <defs></defs>
    <g id="Page-1" stroke="none" stroke-width="1" fill="none" fill-rule="evenodd">
        <g id="search" transform="translate(-1032.000000, -484.000000)" stroke="#FFFFFF" fill="#FFFFFF">
            <g id="Search" transform="translate(260.000000, 471.000000)">
                <g transform="translate(722.000000, 0.000000)" id="Shape">
                    <path d="M69.868,33.162 L63.925,26.678 C65.264,25.277 66,23.445 66,21.5 C66,19.497 65.22,17.613 63.803,16.197 C62.386,14.781 60.503,14 58.5,14 C56.497,14 54.613,14.78 53.197,16.197 C51.781,17.614 51,19.497 51,21.5 C51,23.503 51.78,25.387 53.197,26.803 C54.614,28.219 56.497,29 58.5,29 C60.226,29 61.862,28.421 63.188,27.355 L69.131,33.838 C69.23,33.946 69.364,34 69.5,34 C69.621,34 69.742,33.957 69.838,33.869 C70.042,33.682 70.055,33.366 69.869,33.163 L69.868,33.162 Z M51.999,21.5 C51.999,17.916 54.915,15 58.499,15 C62.083,15 64.999,17.916 64.999,21.5 C64.999,25.084 62.083,28 58.499,28 C54.915,28 51.999,25.084 51.999,21.5 L51.999,21.5 Z"></path>
                </g>
            </g>
        </g>
    </g>
</svg>