<svg width="26" height="26" viewBox="0 0 26 26" xmlns="http://www.w3.org/2000/svg"><title>DA9CB42F-26F8-4776-A0D1-9C61985A993D</title><path d="M20.798 26c-2.304 0-4.755-.653-7.285-1.94-2.333-1.186-4.637-2.886-6.664-4.914-2.027-2.028-3.724-4.332-4.91-6.665C.652 9.951 0 7.502 0 5.2c0-1.492 1.392-2.934 1.99-3.484C2.848.924 4.201 0 5.184 0c.49 0 1.062.32 1.805 1.006.553.512 1.176 1.207 1.799 2.007.376.484 2.25 2.953 2.25 4.137 0 .971-1.099 1.647-2.262 2.36-.45.276-.914.562-1.25.832-.359.287-.423.439-.433.473 1.234 3.075 5.008 6.847 8.085 8.08.027-.01.18-.07.472-.434.27-.335.556-.8.832-1.249.715-1.162 1.39-2.26 2.362-2.26 1.185 0 3.656 1.873 4.14 2.248.8.623 1.496 1.246 2.008 1.798.687.741 1.007 1.314 1.007 1.803 0 .983-.925 2.339-1.716 3.202-.551.6-1.994 1.998-3.488 1.998l.002-.001zM5.178 1.3c-.348.006-1.286.433-2.306 1.372-.967.891-1.57 1.86-1.57 2.528 0 8.748 10.75 19.5 19.496 19.5.667 0 1.636-.604 2.529-1.577.94-1.024 1.367-1.966 1.373-2.315-.041-.247-.726-1.208-2.598-2.648-1.609-1.238-2.914-1.902-3.25-1.91-.023.006-.168.062-.464.437-.256.326-.53.772-.797 1.204-.729 1.184-1.417 2.303-2.417 2.303-.161 0-.32-.031-.472-.092-3.415-1.365-7.453-5.4-8.82-8.813-.163-.41-.19-1.051.617-1.782.43-.389 1.023-.753 1.598-1.106.432-.266.88-.54 1.205-.797.374-.295.43-.441.437-.464-.01-.336-.673-1.64-1.911-3.248-1.442-1.87-2.403-2.553-2.65-2.596V1.3z" fill="#0A184A" fill-rule="evenodd"/></svg>