<svg width="48" height="41" viewBox="0 0 48 41" xmlns="http://www.w3.org/2000/svg"><title>B62856D0-9693-4E35-9AA0-FFDA054A469B</title><g fill="#FFF" fill-rule="evenodd"><path d="M26.825 5.475a.82.82 0 0 0 .579-.237l3.703-3.663a.803.803 0 0 0 0-1.144.824.824 0 0 0-1.157 0l-3.703 3.663a.803.803 0 0 0 0 1.144c.159.158.368.237.578.237zM30.403 9.35a.82.82 0 0 0 .578.236.82.82 0 0 0 .579-.237l4.178-4.132a.803.803 0 0 0 0-1.145.824.824 0 0 0-1.157 0l-4.178 4.133a.802.802 0 0 0 0 1.144zM37.172 3.463a.82.82 0 0 0 .579-.237l1.805-1.786a.803.803 0 0 0 0-1.144.824.824 0 0 0-1.157 0l-1.805 1.786a.803.803 0 0 0 0 1.144c.16.158.37.237.578.237zM47.585.577a.824.824 0 0 0-1.157 0l-11.87 11.739a.803.803 0 0 0 0 1.144.82.82 0 0 0 .58.237.82.82 0 0 0 .578-.237l11.87-11.74a.803.803 0 0 0-.001-1.143zM34.055 22.352a16.525 16.525 0 0 0-1.536-5.597v-.003a16.62 16.62 0 0 0-3.348-4.71 11.112 11.112 0 0 0-.816-.752 17.03 17.03 0 0 0-2.592-1.872 16.902 16.902 0 0 0-6.262-2.16c-.377-.051-.753-.09-1.137-.12-.32-.022-.658.048-.942.045-1.08-.023-2.169-.219-3.23.32h-.009c-2.16 0-4.195.932-6.043 2.075-.894.544-1.75 1.162-2.545 1.702l-.002.127c-.002.001-.004.065-.006.068l-.001.032c-.172.153-.343.326-.508.49a3.611 3.611 0 0 0-.231.254c-1.283 1.313-2.413 2.805-3.188 4.425-.763 1.57-1.048 3.246-1.594 4.97v.002c0 .947-.092 1.922-.056 2.917l.076.575a16.278 16.278 0 0 0 1.098 4.82s.011.001.012.003c0 .003.008.006.009.01 0 .002.004.006.005.008l.003.002c.135.365.296.74.491 1.146a16.788 16.788 0 0 0 2.734 4.048c.186.22.394.443.618.665a17.076 17.076 0 0 0 3.768 2.811l.006.005a17.055 17.055 0 0 0 7.02 2.064 16.117 16.117 0 0 0 1.822.034l.006-.001a17.033 17.033 0 0 0 6.334-1.423.919.919 0 0 0 .077-.039 16.748 16.748 0 0 0 4.512-2.938c.022-.018.044-.04.065-.06a5.38 5.38 0 0 0 .424-.394l-.047-.047c2.106-2.078 3.75-4.664 4.295-7.48v-.002.17H33.48c.159-.539.308-1.233.396-1.787.002-.01.015-.062.016-.072.217-1.281.283-2.624.186-3.929a8.364 8.364 0 0 0-.022-.402zm-6.046-9.173a15.044 15.044 0 0 1 2.828 3.88l-3.199 5.087-4.545.438-4.29-4.566.575-4.055 6.32-2.543c.032-.013.056-.035.085-.051.52.354 1.027.728 1.504 1.147.237.196.471.41.722.663zM8.535 30.45L2.6 29.006a14.648 14.648 0 0 1-.84-3.967l-.033-.549a15.51 15.51 0 0 1 .087-2.17l5.381-2.167 3.5 1.656.74 6.087-2.901 2.553zm.467-19.454a15.224 15.224 0 0 1 5.012-1.975l3.785 4.432-.607 4.281-5.75 2.635-3.526-1.67-.484-6.512c-.001-.025-.013-.046-.017-.07.509-.41 1.038-.787 1.587-1.121zm1.01 26.449l-.429-5.75 2.908-2.56 6.255 1.223 1.334 3.468-3.337 5.32c-.259-.006-.518-.017-.775-.036a15.207 15.207 0 0 1-5.957-1.665zm18.156-2.932l-6.7-1.629-1.232-3.201 3.1-5.495 4.563-.44 3.927 4.6a15.065 15.065 0 0 1-3.658 6.165z"/></g></svg>