<?xml version="1.0" encoding="UTF-8"?>
<svg width="14px" height="15px" viewBox="0 0 14 15" version="1.1" xmlns="http://www.w3.org/2000/svg" xmlns:xlink="http://www.w3.org/1999/xlink">
    <!-- Generator: sketchtool 42 (36781) - http://www.bohemiancoding.com/sketch -->
    <title>0EB6413D-F51E-436D-A25C-86D593237912</title>
    <desc>Created with sketchtool.</desc>
    <defs></defs>
    <g id="Page-1" stroke="none" stroke-width="1" fill="none" fill-rule="evenodd">
        <g id="Show-page" transform="translate(-99.000000, -724.000000)" fill="#7F98F6">
            <g id="Activ" transform="translate(99.000000, 715.000000)">
                <g id="user" transform="translate(0.000000, 9.000000)">
                    <path d="M7,8.25 C4.76515789,8.25 2.94736842,6.39975 2.94736842,4.125 C2.94736842,1.85025 4.76515789,0 7,0 C9.23484211,0 11.0526316,1.85025 11.0526316,4.125 C11.0526316,6.39975 9.23484211,8.25 7,8.25 L7,8.25 Z M7,0.75 C5.17189474,0.75 3.68421053,2.26425 3.68421053,4.125 C3.68421053,5.98575 5.17189474,7.5 7,7.5 C8.82810526,7.5 10.3157895,5.98575 10.3157895,4.125 C10.3157895,2.26425 8.82810526,0.75 7,0.75 L7,0.75 Z" id="Shape"></path>
                    <path d="M12.8947368,15 L1.10526316,15 C0.495894737,15 0,14.49525 0,13.875 C0,13.824 0.0103157895,12.61125 0.902631579,11.4 C1.42210526,10.695 2.13315789,10.13475 3.01663158,9.73575 C4.09536842,9.2475 5.43568421,9 7,9 C8.56431579,9 9.90463158,9.2475 10.9833684,9.73575 C11.8668421,10.1355 12.5778947,10.695 13.0973684,11.4 C13.9896842,12.61125 14,13.824 14,13.875 C14,14.49525 13.5041053,15 12.8947368,15 L12.8947368,15 Z M7,9.75 C4.43063158,9.75 2.53473684,10.46475 1.51715789,11.817 C0.754526316,12.83025 0.737578947,13.866 0.736842105,13.8765 C0.736842105,14.082 0.901894737,14.25 1.10526316,14.25 L12.8947368,14.25 C13.0981053,14.25 13.2631579,14.082 13.2631579,13.875 C13.2631579,13.866 13.2462105,12.83025 12.4828421,11.817 C11.4645263,10.46475 9.56863158,9.75 7,9.75 L7,9.75 Z" id="Shape"></path>
                </g>
            </g>
        </g>
    </g>
</svg>