<svg width="14" height="15" viewBox="0 0 14 15" xmlns="http://www.w3.org/2000/svg"><title>0EB6413D-F51E-436D-A25C-86D593237912</title><g fill="#7F98F6" fill-rule="evenodd"><path d="M7 8.25c-2.235 0-4.053-1.85-4.053-4.125S4.765 0 7 0s4.053 1.85 4.053 4.125S9.235 8.25 7 8.25zm0-7.5c-1.828 0-3.316 1.514-3.316 3.375C3.684 5.985 5.172 7.5 7 7.5c1.828 0 3.316-1.514 3.316-3.375C10.316 2.265 8.828.75 7 .75zM12.895 15H1.105C.495 15 0 14.495 0 13.875c0-.051.01-1.264.903-2.475.52-.705 1.23-1.265 2.114-1.664C4.095 9.247 5.436 9 7 9s2.905.248 3.983.736c.884.4 1.595.959 2.114 1.664.893 1.211.903 2.424.903 2.475 0 .62-.496 1.125-1.105 1.125zM7 9.75c-2.57 0-4.465.715-5.483 2.067-.762 1.013-.78 2.049-.78 2.06 0 .205.165.373.368.373h11.79a.372.372 0 0 0 .368-.375c0-.009-.017-1.045-.78-2.058C11.465 10.465 9.569 9.75 7 9.75z"/></g></svg>