<svg width="55" height="32" viewBox="0 0 55 32" xmlns="http://www.w3.org/2000/svg"><title>95F01287-9575-4685-8884-2CB22A88D90F</title><g fill="#7F98F6" fill-rule="evenodd"><path d="M12.174 21.152c-2.818 0-5.102 2.325-5.102 5.194 0 2.87 2.284 5.194 5.102 5.194 2.82 0 5.103-2.324 5.103-5.194s-2.283-5.194-5.103-5.194zm0 7.452c-1.225 0-2.217-1.01-2.217-2.258s.992-2.258 2.217-2.258c1.226 0 2.22 1.01 2.22 2.258s-.994 2.258-2.22 2.258zM42.128 21.152c-2.818 0-5.102 2.325-5.102 5.194 0 2.87 2.284 5.194 5.102 5.194 2.82 0 5.103-2.324 5.103-5.194s-2.284-5.194-5.103-5.194zm0 7.452c-1.225 0-2.218-1.01-2.218-2.258s.993-2.258 2.218-2.258 2.219 1.01 2.219 2.258-.994 2.258-2.219 2.258z"/><path d="M51.866.118H6.098C4.42.118 2.775 1.487 2.439 3.16L.61 9.96C.275 11.63 0 14.395 0 16.102v7.14c0 1.706 1.372 3.103 3.049 3.103h3.108c0-3.377 2.7-6.125 6.017-6.125 3.318 0 6.018 2.748 6.018 6.125H36.11c0-3.377 2.7-6.125 6.017-6.125 3.318 0 6.017 2.748 6.017 6.125h3.72c1.677 0 3.049-1.396 3.049-3.104V3.222c0-1.707-1.371-3.104-3.048-3.104zM12.67 13.215H5.565L6.69 10.5a.937.937 0 0 0-.487-1.22.909.909 0 0 0-1.198.495l-1.397 3.367c-.942-.253-1.516-1.151-1.322-2.216l1.64-6.659c.229-1.259 1.446-2.289 2.703-2.289h6.04v11.237zm13.567 0H14.499V1.978h11.738v11.237zm13.567 0H28.066V1.978h11.738v11.237zm13.24-2.328c0 1.28-1.028 2.328-2.286 2.328h-9.125V1.978h9.125c1.258 0 2.287 1.048 2.287 2.328v6.58z"/></g></svg>